PERFORMER "€ÿti®®®®®®®®®®®®®®®®®®®®®®®®®FILE ®stNamFILEAVE
    TRACK 01 AU\IO
  e"
TITLE "AlbumName"
FILE "0 . Track01.flac" WAVE
    Tht Out Of My Mouth (Hot SummRACK 01 AU\IO@     REM DATE 1977
  PERFOR4ER "Meat Loaf"
    TITLE "Bat Out Of Hell"
FILE "Side 1.flac" WAVE
 FILE K 01 AUDIO
    TITLE "1.1 Bat Out Of Hell"
-   INDEX 01 00:00:00
  TRACK 02  AUDIO
    TACKE "1.2 You Took The Words RigTt Out Of My Mouth (Hot Summer Night)"
    INDEX 01 09:52:00
  TRACÿ€03 AUDIO
    TITL00000000000000E "1.3 Heaven Can Wait"
 00
  TRACK 04 AUDIO
    TITLE "1.4 All ReFILE Up With No Place To Go"
    INDEX 01 19:39:00
FILE "Side 2.flac" WAVE
  TRACK 05 AUDIO
    TITLE "2.1 Two ,ut
    INDEX 01 00:00:00
  T6 AUDIO
